<svg version="1.1" id="Layer_1" xmlns="http://www.w3.org/2000/svg" xmlns:xlink="http://www.w3.org/1999/xlink" x="0px" y="0px"
	 width="100%" viewBox="0 0 661 377" enable-background="new 0 0 661 377" xml:space="preserve">
<path fill="#000000" opacity="1.000000" stroke="none" 
	d="
M374.000000,378.000000 
	C249.363220,378.000000 125.226433,378.000000 1.044827,378.000000 
	C1.044827,252.393478 1.044827,126.786934 1.044827,1.090196 
	C221.220139,1.090196 441.440338,1.090196 661.830261,1.090196 
	C661.830261,126.666489 661.830261,252.333221 661.830261,378.000000 
	C566.120239,378.000000 470.310120,378.000000 374.000000,378.000000 
M235.249298,123.985832 
	C234.171524,124.378761 233.093750,124.771690 231.278549,125.135811 
	C229.421249,125.834305 227.530167,126.455177 225.712814,127.245514 
	C219.669693,129.873566 213.359604,132.062012 207.711502,135.373505 
	C202.409836,138.481857 203.321945,144.485092 208.999786,146.874405 
	C214.052155,149.000504 219.209183,150.876953 224.273453,152.975922 
	C228.476837,154.718094 232.612442,156.623764 237.375137,158.719757 
	C235.487549,160.730774 234.285782,162.071411 233.020477,163.349152 
	C226.453323,169.980820 219.823608,176.551193 213.307220,183.232193 
	C208.304993,188.360794 209.164841,192.718811 215.672134,195.494537 
	C224.386078,199.211487 233.100037,202.933899 241.890411,206.463638 
	C245.602570,207.954269 247.242340,210.106293 247.100342,214.335754 
	C246.781754,223.824936 247.210281,233.338623 246.918106,242.829498 
	C246.765060,247.800949 249.071777,250.751678 253.200684,252.526184 
	C275.786896,262.232941 298.370422,271.949951 321.087189,281.343445 
	C323.673645,282.412933 327.456635,282.394073 330.059113,281.337982 
	C354.042328,271.605621 377.917847,261.604004 401.714569,251.423218 
	C403.571655,250.628708 404.597137,247.890411 406.757690,245.606079 
	C406.866150,233.064240 406.974609,220.522385 407.808350,207.967407 
	C410.089600,206.989914 412.366089,206.001068 414.653015,205.037018 
	C421.988312,201.944962 429.434265,199.089066 436.631561,195.704178 
	C442.435791,192.974487 443.142212,189.191895 439.361206,184.072693 
	C438.479340,182.878693 437.336243,181.866547 436.252716,180.834396 
	C430.033325,174.909714 423.731964,169.069382 417.588654,163.067108 
	C414.045685,159.605423 414.287140,158.838348 418.785797,157.025131 
	C426.943726,153.737045 435.182648,150.629959 443.203064,147.035187 
	C445.171661,146.152878 447.606812,143.743347 447.704803,141.921799 
	C447.820892,139.763870 445.953186,137.211624 444.344604,135.349030 
	C443.260468,134.093613 441.166809,133.659607 439.473053,132.988617 
	C413.317108,122.626610 387.179688,112.216103 360.937225,102.077644 
	C358.912445,101.295403 355.533508,101.626587 353.809784,102.866394 
	C345.898773,108.556396 338.411652,114.831490 330.641174,120.723541 
	C328.173340,122.594788 325.805664,125.687775 321.980438,122.520638 
	C317.140900,118.513733 312.066742,114.790207 306.748962,110.355888 
	C303.116852,107.527527 299.611938,104.506516 295.782104,101.977547 
	C294.479187,101.117188 292.100769,100.840355 290.649689,101.409042 
	C273.678619,108.059975 256.790710,114.923210 239.277771,121.982315 
	C238.167694,122.624107 237.057617,123.265892 235.249298,123.985832 
z"/>
<path fill="#112D3C" opacity="1.000000" stroke="none" 
	d="
M307.093781,110.944450 
	C312.066742,114.790207 317.140900,118.513733 321.980438,122.520638 
	C325.805664,125.687775 328.173340,122.594788 330.641174,120.723541 
	C338.411652,114.831490 345.898773,108.556396 353.809784,102.866394 
	C355.533508,101.626587 358.912445,101.295403 360.937225,102.077644 
	C387.179688,112.216103 413.317108,122.626610 439.473053,132.988617 
	C441.166809,133.659607 443.260468,134.093613 444.344604,135.349030 
	C445.953186,137.211624 447.820892,139.763870 447.704803,141.921799 
	C447.606812,143.743347 445.171661,146.152878 443.203064,147.035187 
	C435.182648,150.629959 426.943726,153.737045 418.785797,157.025131 
	C414.287140,158.838348 414.045685,159.605423 417.588654,163.067108 
	C423.731964,169.069382 430.033325,174.909714 436.252716,180.834396 
	C437.336243,181.866547 438.479340,182.878693 439.361206,184.072693 
	C443.142212,189.191895 442.435791,192.974487 436.631561,195.704178 
	C429.434265,199.089066 421.988312,201.944962 414.653015,205.037018 
	C412.366089,206.001068 410.089600,206.989914 407.142761,208.271286 
	C406.321136,221.068619 406.165161,233.562057 406.009155,246.055511 
	C404.597137,247.890411 403.571655,250.628708 401.714569,251.423218 
	C377.917847,261.604004 354.042328,271.605621 330.059113,281.337982 
	C327.456635,282.394073 323.673645,282.412933 321.087189,281.343445 
	C298.370422,271.949951 275.786896,262.232941 253.200684,252.526184 
	C249.071777,250.751678 246.765060,247.800949 246.918106,242.829498 
	C247.210281,233.338623 246.781754,223.824936 247.100342,214.335754 
	C247.242340,210.106293 245.602570,207.954269 241.890411,206.463638 
	C233.100037,202.933899 224.386078,199.211487 215.672134,195.494537 
	C209.164841,192.718811 208.304993,188.360794 213.307220,183.232193 
	C219.823608,176.551193 226.453323,169.980820 233.020477,163.349152 
	C234.285782,162.071411 235.487549,160.730774 237.375137,158.719757 
	C232.612442,156.623764 228.476837,154.718094 224.273453,152.975922 
	C219.209183,150.876953 214.052155,149.000504 208.999786,146.874405 
	C203.321945,144.485092 202.409836,138.481857 207.711502,135.373505 
	C213.359604,132.062012 219.669693,129.873566 225.712814,127.245514 
	C227.530167,126.455177 229.421249,125.834305 231.672272,125.506592 
	C233.481537,128.977112 234.897095,132.076843 236.056732,135.433640 
	C232.320587,137.136276 228.840378,138.581863 224.443695,140.408112 
	C235.477509,144.779358 245.565781,148.863907 255.746231,152.704056 
	C257.102570,153.215652 259.037659,152.802292 260.514618,152.279877 
	C267.076874,149.958771 273.580170,147.469009 280.085632,144.989868 
	C291.606079,140.599579 303.112610,136.172699 315.295593,131.504135 
	C311.842377,128.819214 308.985504,126.597969 305.850769,124.150177 
	C303.044159,121.973450 300.515381,120.023262 298.063049,117.726883 
	C301.124207,115.235268 304.108978,113.089851 307.093781,110.944450 
M413.468323,135.437027 
	C398.737762,129.571045 383.921875,123.907417 369.315277,117.747459 
	C362.735474,114.972610 356.837463,113.111931 351.231903,119.443924 
	C349.510132,121.388817 347.100159,122.724419 344.353699,124.365494 
	C341.730560,126.627419 339.107422,128.889343 335.953552,131.608902 
	C349.373810,136.682053 362.675293,140.611816 374.939819,146.648407 
	C387.797546,152.976990 399.521606,153.817200 411.993195,146.455444 
	C416.342194,143.888321 421.492615,142.678894 427.632111,140.331238 
	C422.075439,138.521484 418.031525,137.204422 413.468323,135.437027 
M319.692719,215.208633 
	C319.692719,211.802399 319.692719,208.396149 319.692719,203.791931 
	C317.618530,205.574219 316.459503,206.428787 315.467468,207.446136 
	C310.131744,212.917908 304.654236,218.268112 299.597809,223.989197 
	C296.564270,227.421494 293.194183,227.839294 289.272095,226.649109 
	C287.214264,226.024612 285.253326,225.073654 283.261902,224.238464 
	C275.204529,220.859131 267.152283,217.467499 258.516022,213.835602 
	C258.516022,218.721054 258.516022,222.809708 258.404449,227.838760 
	C258.385254,230.835358 258.569244,233.850845 258.292786,236.823517 
	C257.983337,240.150894 259.256897,242.004028 262.316528,243.298981 
	C279.757507,250.680756 297.137177,258.207275 314.550903,265.653656 
	C315.968231,266.259735 317.484650,266.634094 319.485260,267.289978 
	C319.485260,249.675308 319.485260,232.887589 319.692719,215.208633 
M394.919189,226.075226 
	C394.919189,222.161804 394.919189,218.248367 394.919189,213.800446 
	C392.945587,214.459915 391.703674,214.795547 390.523804,215.281845 
	C381.627289,218.948746 372.767487,222.706039 363.845367,226.309082 
	C358.719055,228.379257 354.334015,227.683380 350.515533,223.093491 
	C346.491852,218.256927 341.921539,213.872559 337.548615,209.330536 
	C335.896973,207.615021 334.129486,206.011063 332.414795,204.356247 
	C332.036133,204.510803 331.657471,204.665344 331.278839,204.819901 
	C331.444122,208.546005 331.609436,212.272110 331.667938,216.930817 
	C331.667938,233.783768 331.667938,250.636703 331.667938,267.861816 
	C349.138275,260.536926 365.783356,253.526794 382.454163,246.578445 
	C395.366058,241.196808 395.380371,241.231155 394.919189,226.075226 
M248.273544,166.024094 
	C241.091568,172.789886 233.909592,179.555695 226.087540,186.924469 
	C248.444031,196.528900 269.841675,205.721405 291.836334,215.170395 
	C298.462982,207.801788 305.145386,200.371170 312.458191,192.655930 
	C313.932037,191.494278 315.405884,190.332626 317.289490,188.848022 
	C315.860504,187.978699 315.110168,187.374710 314.255890,187.024170 
	C295.260284,179.230286 276.257172,171.454575 257.244507,163.702332 
	C253.894669,162.336456 251.090866,163.128220 248.273544,166.024094 
M401.879578,165.477371 
	C399.434235,161.891891 396.302429,162.814606 393.082336,164.105637 
	C383.885864,167.792816 374.659973,171.407272 365.483765,175.143982 
	C355.156769,179.349274 344.871399,183.656708 333.776947,188.246979 
	C336.067932,190.222580 337.653229,191.589615 339.155396,193.628647 
	C345.275177,199.956085 351.292633,206.388992 357.607758,212.515060 
	C358.763153,213.635880 361.467682,214.370911 362.883026,213.817017 
	C372.445007,210.075058 381.856842,205.948593 391.308777,201.926636 
	C402.491760,197.168091 413.666168,192.389496 424.791504,187.642136 
	C419.447296,182.108673 414.492828,176.779816 409.298370,171.696182 
	C407.155457,169.598999 404.497253,168.028320 401.879578,165.477371 
M297.493134,151.115067 
	C291.074799,153.557617 284.656494,156.000168 278.238159,158.442719 
	C278.278168,158.914093 278.318207,159.385483 278.358215,159.856857 
	C291.856262,165.169495 305.354309,170.482147 319.228394,175.942780 
	C319.228394,164.502136 319.228394,153.886261 319.228394,142.682693 
	C311.785614,145.560181 304.997711,148.184464 297.493134,151.115067 
M363.753174,163.219772 
	C366.713684,162.010223 369.674164,160.800659 374.078918,159.001038 
	C359.070984,153.230057 345.612518,148.054871 331.874420,142.772171 
	C331.874420,154.249039 331.874420,164.751648 331.874420,175.733734 
	C342.660950,171.502808 352.851074,167.505798 363.753174,163.219772 
z"/>
<path fill="#113040" opacity="1.000000" stroke="none" 
	d="
M236.312653,135.176590 
	C234.897095,132.076843 233.481537,128.977112 232.040985,125.520996 
	C233.093750,124.771690 234.171524,124.378761 235.852539,124.151665 
	C237.597473,123.455116 238.739166,122.592728 239.880859,121.730347 
	C256.790710,114.923210 273.678619,108.059975 290.649689,101.409042 
	C292.100769,100.840355 294.479187,101.117188 295.782104,101.977547 
	C299.611938,104.506516 303.116852,107.527527 306.921387,110.650162 
	C304.108978,113.089851 301.124207,115.235268 297.757507,117.562714 
	C294.340302,116.054848 291.872284,113.133247 287.570129,115.242538 
	C281.785461,118.078682 275.744415,120.416313 269.730988,122.756134 
	C258.790283,127.013168 247.788879,131.114243 236.677521,135.303757 
	C236.542252,135.327118 236.312653,135.176590 236.312653,135.176590 
z"/>
<path fill="#576E7A" opacity="1.000000" stroke="none" 
	d="
M406.383423,245.830795 
	C406.165161,233.562057 406.321136,221.068619 406.780090,208.277863 
	C406.974609,220.522385 406.866150,233.064240 406.383423,245.830795 
z"/>
<path fill="#112D3C" opacity="1.000000" stroke="none" 
	d="
M239.579315,121.856323 
	C238.739166,122.592728 237.597473,123.455116 236.201660,124.112595 
	C237.057617,123.265892 238.167694,122.624107 239.579315,121.856323 
z"/>
<path fill="#E0A778" opacity="1.000000" stroke="none" 
	d="
M402.073425,166.218155 
	C404.497253,168.028320 407.155457,169.598999 409.298370,171.696182 
	C414.492828,176.779816 419.447296,182.108673 424.791504,187.642136 
	C413.666168,192.389496 402.491760,197.168091 391.308777,201.926636 
	C381.856842,205.948593 372.445007,210.075058 362.883026,213.817017 
	C361.467682,214.370911 358.763153,213.635880 357.607758,212.515060 
	C351.292633,206.388992 345.275177,199.956085 339.565674,193.296844 
	C340.307831,192.960876 340.678009,193.053238 340.966095,192.938843 
	C360.217255,185.292648 379.479340,177.672989 398.670593,169.879013 
	C400.069702,169.310806 400.951263,167.468246 402.073425,166.218155 
z"/>
<path fill="#DDA676" opacity="1.000000" stroke="none" 
	d="
M311.827789,192.940567 
	C305.145386,200.371170 298.462982,207.801788 291.836334,215.170395 
	C269.841675,205.721405 248.444031,196.528900 226.087540,186.924469 
	C233.909592,179.555695 241.091568,172.789886 248.655594,166.429718 
	C250.338882,167.895370 251.481277,169.337097 252.966431,169.955261 
	C265.188660,175.042511 277.435913,180.074982 289.755707,184.920395 
	C297.038025,187.784576 304.465546,190.279556 311.827789,192.940567 
z"/>
<path fill="#DFA577" opacity="1.000000" stroke="none" 
	d="
M394.783203,226.982910 
	C395.380371,241.231155 395.366058,241.196808 382.454163,246.578445 
	C365.783356,253.526794 349.138275,260.536926 331.667938,267.861816 
	C331.667938,250.636703 331.667938,233.783768 332.052185,216.572632 
	C336.462921,220.368332 340.411133,224.601654 344.529907,228.661957 
	C360.173706,244.083694 352.169769,243.612854 372.540619,235.452759 
	C379.904175,232.503067 387.366150,229.799026 394.783203,226.982910 
z"/>
<path fill="#DFA577" opacity="1.000000" stroke="none" 
	d="
M319.485229,216.099854 
	C319.485260,232.887589 319.485260,249.675308 319.485260,267.289978 
	C317.484650,266.634094 315.968231,266.259735 314.550903,265.653656 
	C297.137177,258.207275 279.757507,250.680756 262.316528,243.298981 
	C259.256897,242.004028 257.983337,240.150894 258.292786,236.823517 
	C258.569244,233.850845 258.385254,230.835358 258.869141,227.401779 
	C260.893188,227.481216 262.501343,227.884628 264.003845,228.532806 
	C272.359100,232.137222 280.717194,235.737915 289.014801,239.472076 
	C292.961304,241.248123 295.805267,241.154251 298.773499,237.179794 
	C302.711304,231.907166 307.504913,227.254379 312.105072,222.504059 
	C314.362427,220.173004 317.012756,218.222549 319.485229,216.099854 
z"/>
<path fill="#DEA677" opacity="1.000000" stroke="none" 
	d="
M236.056732,135.433640 
	C236.312653,135.176590 236.542252,135.327118 236.732941,135.683502 
	C237.494003,141.013763 240.950638,140.543991 244.074265,139.378738 
	C255.664062,135.055206 267.091888,130.293488 278.711243,126.054588 
	C286.164154,123.335655 293.797058,118.027328 301.338318,126.514137 
	C302.676453,128.020065 305.501709,127.343536 306.128632,124.376709 
	C308.985504,126.597969 311.842377,128.819214 315.295593,131.504135 
	C303.112610,136.172699 291.606079,140.599579 280.085632,144.989868 
	C273.580170,147.469009 267.076874,149.958771 260.514618,152.279877 
	C259.037659,152.802292 257.102570,153.215652 255.746231,152.704056 
	C245.565781,148.863907 235.477509,144.779358 224.443695,140.408112 
	C228.840378,138.581863 232.320587,137.136276 236.056732,135.433640 
z"/>
<path fill="#DDA676" opacity="1.000000" stroke="none" 
	d="
M413.987640,135.887360 
	C418.031525,137.204422 422.075439,138.521484 427.632111,140.331238 
	C421.492615,142.678894 416.342194,143.888321 411.993195,146.455444 
	C399.521606,153.817200 387.797546,152.976990 374.939819,146.648407 
	C362.675293,140.611816 349.373810,136.682053 335.953552,131.608902 
	C339.107422,128.889343 341.730560,126.627419 344.695404,124.689377 
	C347.510162,129.172318 349.912354,126.165291 351.701294,124.573120 
	C354.782898,121.830460 358.266510,121.204506 361.791260,122.369087 
	C367.875977,124.379494 373.749634,127.020378 379.751251,129.292740 
	C388.864044,132.743057 397.995209,136.146378 407.150482,139.482162 
	C410.618652,140.745834 413.340637,140.186935 413.987640,135.887360 
z"/>
<path fill="#B1754E" opacity="1.000000" stroke="none" 
	d="
M394.851196,226.529053 
	C387.366150,229.799026 379.904175,232.503067 372.540619,235.452759 
	C352.169769,243.612854 360.173706,244.083694 344.529907,228.661957 
	C340.411133,224.601654 336.462921,220.368332 332.105591,216.106323 
	C331.609436,212.272110 331.444122,208.546005 331.278839,204.819901 
	C331.657471,204.665344 332.036133,204.510803 332.414795,204.356247 
	C334.129486,206.011063 335.896973,207.615021 337.548615,209.330536 
	C341.921539,213.872559 346.491852,218.256927 350.515533,223.093491 
	C354.334015,227.683380 358.719055,228.379257 363.845367,226.309082 
	C372.767487,222.706039 381.627289,218.948746 390.523804,215.281845 
	C391.703674,214.795547 392.945587,214.459915 394.919189,213.800446 
	C394.919189,218.248367 394.919189,222.161804 394.851196,226.529053 
z"/>
<path fill="#B1764F" opacity="1.000000" stroke="none" 
	d="
M319.588989,215.654236 
	C317.012756,218.222549 314.362427,220.173004 312.105072,222.504059 
	C307.504913,227.254379 302.711304,231.907166 298.773499,237.179794 
	C295.805267,241.154251 292.961304,241.248123 289.014801,239.472076 
	C280.717194,235.737915 272.359100,232.137222 264.003845,228.532806 
	C262.501343,227.884628 260.893188,227.481216 258.924927,226.931580 
	C258.516022,222.809708 258.516022,218.721054 258.516022,213.835602 
	C267.152283,217.467499 275.204529,220.859131 283.261902,224.238464 
	C285.253326,225.073654 287.214264,226.024612 289.272095,226.649109 
	C293.194183,227.839294 296.564270,227.421494 299.597809,223.989197 
	C304.654236,218.268112 310.131744,212.917908 315.467468,207.446136 
	C316.459503,206.428787 317.618530,205.574219 319.692719,203.791931 
	C319.692719,208.396149 319.692719,211.802399 319.588989,215.654236 
z"/>
<path fill="#B5764B" opacity="1.000000" stroke="none" 
	d="
M297.851501,150.961914 
	C304.997711,148.184464 311.785614,145.560181 319.228394,142.682693 
	C319.228394,153.886261 319.228394,164.502136 319.228394,175.942780 
	C305.354309,170.482147 291.856262,165.169495 278.358215,159.856857 
	C278.318207,159.385483 278.278168,158.914093 278.238159,158.442719 
	C284.656494,156.000168 291.074799,153.557617 297.851501,150.961914 
z"/>
<path fill="#B4744C" opacity="1.000000" stroke="none" 
	d="
M363.397217,163.364288 
	C352.851074,167.505798 342.660950,171.502808 331.874420,175.733734 
	C331.874420,164.751648 331.874420,154.249039 331.874420,142.772171 
	C345.612518,148.054871 359.070984,153.230057 374.078918,159.001038 
	C369.674164,160.800659 366.713684,162.010223 363.397217,163.364288 
z"/>
<path fill="#000000" opacity="1.000000" stroke="none" 
	d="
M401.976501,165.847763 
	C400.951263,167.468246 400.069702,169.310806 398.670593,169.879013 
	C379.479340,177.672989 360.217255,185.292648 340.966095,192.938843 
	C340.678009,193.053238 340.307831,192.960876 339.607239,192.960846 
	C337.653229,191.589615 336.067932,190.222580 333.776947,188.246979 
	C344.871399,183.656708 355.156769,179.349274 365.483765,175.143982 
	C374.659973,171.407272 383.885864,167.792816 393.082336,164.105637 
	C396.302429,162.814606 399.434235,161.891891 401.976501,165.847763 
z"/>
<path fill="#000000" opacity="1.000000" stroke="none" 
	d="
M312.143005,192.798248 
	C304.465546,190.279556 297.038025,187.784576 289.755707,184.920395 
	C277.435913,180.074982 265.188660,175.042511 252.966431,169.955261 
	C251.481277,169.337097 250.338882,167.895370 249.002014,166.473846 
	C251.090866,163.128220 253.894669,162.336456 257.244507,163.702332 
	C276.257172,171.454575 295.260284,179.230286 314.255890,187.024170 
	C315.110168,187.374710 315.860504,187.978699 317.289490,188.848022 
	C315.405884,190.332626 313.932037,191.494278 312.143005,192.798248 
z"/>
<path fill="#000000" opacity="1.000000" stroke="none" 
	d="
M413.727966,135.662201 
	C413.340637,140.186935 410.618652,140.745834 407.150482,139.482162 
	C397.995209,136.146378 388.864044,132.743057 379.751251,129.292740 
	C373.749634,127.020378 367.875977,124.379494 361.791260,122.369087 
	C358.266510,121.204506 354.782898,121.830460 351.701294,124.573120 
	C349.912354,126.165291 347.510162,129.172318 345.021240,124.676147 
	C347.100159,122.724419 349.510132,121.388817 351.231903,119.443924 
	C356.837463,113.111931 362.735474,114.972610 369.315277,117.747459 
	C383.921875,123.907417 398.737762,129.571045 413.727966,135.662201 
z"/>
<path fill="#000000" opacity="1.000000" stroke="none" 
	d="
M305.850769,124.150177 
	C305.501709,127.343536 302.676453,128.020065 301.338318,126.514137 
	C293.797058,118.027328 286.164154,123.335655 278.711243,126.054588 
	C267.091888,130.293488 255.664062,135.055206 244.074265,139.378738 
	C240.950638,140.543991 237.494003,141.013763 236.868210,135.660141 
	C247.788879,131.114243 258.790283,127.013168 269.730988,122.756134 
	C275.744415,120.416313 281.785461,118.078682 287.570129,115.242538 
	C291.872284,113.133247 294.340302,116.054848 297.681122,117.908913 
	C300.515381,120.023262 303.044159,121.973450 305.850769,124.150177 
z"/>
</svg>